<?xml version="1.0" encoding="UTF-8"?>
<svg version="1.1" xmlns="http://www.w3.org/2000/svg" width="536" height="466">
<path d="M0 0 C0.7149765 -0.00067474 1.429953 -0.00134949 2.16659546 -0.00204468 C13.26460074 0.01458003 23.80793634 0.67182648 34.625 3.25 C35.74092529 3.49145752 35.74092529 3.49145752 36.87939453 3.73779297 C53.43825757 7.32974471 69.54218817 13.72889632 83.625 23.25 C84.66914063 23.94996094 85.71328125 24.64992188 86.7890625 25.37109375 C95.20363361 31.07564044 103.61806291 36.83089014 110.625 44.25 C111.223125 44.806875 111.82125 45.36375 112.4375 45.9375 C113.625 47.25 113.625 47.25 113.625 49.25 C114.285 49.25 114.945 49.25 115.625 49.25 C117.40053898 51.27441795 119.05300355 53.303017 120.6875 55.4375 C121.17702148 56.07099365 121.66654297 56.7044873 122.17089844 57.35717773 C138.02569854 78.03992395 148.20071706 99.3739317 153.875 124.75 C154.03806641 125.47896484 154.20113281 126.20792969 154.36914062 126.95898438 C158.55703255 146.43713703 158.30446937 167.88049928 153.625 187.25 C153.40505371 188.16072266 153.18510742 189.07144531 152.95849609 190.00976562 C152.22586097 192.97175389 151.46536924 195.92457967 150.6875 198.875 C150.44692871 199.78813965 150.20635742 200.7012793 149.95849609 201.64208984 C148.60133183 206.52409877 146.96870644 210.92506254 144.59082031 215.3996582 C143.68235495 217.140118 142.90425752 218.94686616 142.13671875 220.75390625 C140.43502459 224.68934881 138.48099698 228.42199652 136.4375 232.1875 C136.06947266 232.87134766 135.70144531 233.55519531 135.32226562 234.25976562 C134.42581596 235.92460072 133.52578477 237.58750649 132.625 239.25 C131.965 239.25 131.305 239.25 130.625 239.25 C130.39296875 239.94222656 130.1609375 240.63445312 129.921875 241.34765625 C128.35588649 244.85226306 126.24635805 247.70246782 123.875 250.6875 C123.39401855 251.29368164 122.91303711 251.89986328 122.41748047 252.52441406 C110.69056697 266.99370154 96.92407839 279.1816987 80.625 288.25 C79.61050781 288.86359375 78.59601563 289.4771875 77.55078125 290.109375 C69.71919003 294.71274554 61.63845713 297.83260285 53 300.625 C51.97575928 300.95870605 50.95151855 301.29241211 49.89624023 301.63623047 C44.53806043 303.29904016 39.29137487 304.53970217 33.73681641 305.35400391 C32.58629791 305.52461334 31.43577942 305.69522278 30.25039673 305.8710022 C29.38401581 305.99607147 28.51763489 306.12114075 27.625 306.25 C27.62638269 307.20721152 27.62638269 307.20721152 27.62779331 308.18376064 C27.64984861 323.68949329 27.66641159 339.1952205 27.67681217 354.70096493 C27.68197511 362.19933064 27.68901776 369.69768591 27.70043945 377.19604492 C27.71038637 383.72930504 27.71685344 390.26255759 27.71908849 396.79582506 C27.72039559 400.25721807 27.72348136 403.71858942 27.73073006 407.17997551 C27.73874407 411.03787527 27.73899113 414.89575357 27.73852539 418.75366211 C27.74212067 419.90955841 27.74571594 421.06545471 27.74942017 422.25637817 C27.7480455 423.30110794 27.74667084 424.34583771 27.74525452 425.42222595 C27.74663721 426.79247122 27.74663721 426.79247122 27.74804783 428.19039822 C27.625 430.25 27.625 430.25 26.625 431.25 C24.94244765 431.3487517 23.25575972 431.37798904 21.5703125 431.37939453 C20.49249512 431.38254669 19.41467773 431.38569885 18.30419922 431.38894653 C17.13131348 431.3869223 15.95842773 431.38489807 14.75 431.3828125 C13.5552002 431.38376923 12.36040039 431.38472595 11.12939453 431.38571167 C8.5973302 431.38639371 6.06526412 431.38453778 3.53320312 431.38037109 C-0.3581126 431.37502321 -4.24931289 431.38031533 -8.140625 431.38671875 C-10.59375026 431.38605797 -13.04687544 431.38477682 -15.5 431.3828125 C-16.67288574 431.38483673 -17.84577148 431.38686096 -19.05419922 431.38894653 C-20.1320166 431.38579437 -21.20983398 431.38264221 -22.3203125 431.37939453 C-23.27437988 431.37859894 -24.22844727 431.37780334 -25.21142578 431.37698364 C-27.375 431.25 -27.375 431.25 -28.375 430.25 C-28.48315857 428.64351485 -28.52184545 427.03230777 -28.53321838 425.42222595 C-28.5430072 424.37749619 -28.55279602 423.33276642 -28.56288147 422.25637817 C-28.56863693 421.10048187 -28.5743924 419.94458557 -28.58032227 418.75366211 C-28.59022186 417.54407333 -28.60012146 416.33448456 -28.61032104 415.08824158 C-28.63657156 411.76196578 -28.65840756 408.43571479 -28.67832303 405.1093986 C-28.70014495 401.63667221 -28.72755214 398.16399013 -28.75437927 394.69129944 C-28.80435763 388.11107022 -28.8492773 381.53081648 -28.89240164 374.95053917 C-28.94173016 367.46090741 -28.9966645 359.9713201 -29.05208123 352.4817313 C-29.16598018 337.07119524 -29.2728019 321.66061836 -29.375 306.25 C-30.1762178 306.12452286 -30.97743561 305.99904572 -31.80293274 305.86976624 C-32.86610214 305.69883957 -33.92927155 305.5279129 -35.0246582 305.35180664 C-36.07337601 305.1850795 -37.12209381 305.01835236 -38.20259094 304.84657288 C-43.15282665 303.91567894 -47.82310166 302.36916899 -52.5625 300.6875 C-54.04580811 300.16567139 -54.04580811 300.16567139 -55.55908203 299.63330078 C-67.97590991 295.12264888 -79.69069829 289.04459733 -90.375 281.25 C-91.40882812 280.51523437 -92.44265625 279.78046875 -93.5078125 279.0234375 C-102.11168676 272.79649918 -102.11168676 272.79649918 -103.41015625 270.1015625 C-104.7887666 267.45597016 -106.64438353 267.32787492 -109.375 266.25 C-116.67403614 259.50685072 -122.56853463 251.26569821 -128.375 243.25 C-128.85710937 242.61449219 -129.33921875 241.97898437 -129.8359375 241.32421875 C-136.23267119 232.78844991 -140.46839821 223.11237201 -144.375 213.25 C-144.68058838 212.54520508 -144.98617676 211.84041016 -145.30102539 211.11425781 C-148.20003183 204.27174489 -149.95781311 197.36901512 -151.5625 190.125 C-151.82224609 188.99707031 -152.08199219 187.86914062 -152.34960938 186.70703125 C-157.00926192 166.11786884 -157.74312142 142.80425438 -152.375 122.25 C-152.16037109 121.40614746 -151.94574219 120.56229492 -151.72460938 119.69287109 C-149.08275716 109.46933968 -146.15275197 99.70201473 -141.375 90.25 C-140.88 89.05375 -140.385 87.8575 -139.875 86.625 C-135.02256062 75.7070114 -128.0571357 66.31748625 -120.75 56.9375 C-120.2947998 56.35073486 -119.83959961 55.76396973 -119.37060547 55.15942383 C-114.91075205 49.49772155 -109.90937349 44.86197791 -104.375 40.25 C-103.653125 39.486875 -102.93125 38.72375 -102.1875 37.9375 C-98.7744188 34.6761113 -95.09302512 32.01716523 -91.24609375 29.2890625 C-89.48885659 28.0410655 -87.74732803 26.77007719 -86.03515625 25.4609375 C-78.45282756 19.78391192 -70.01098608 16.0273547 -61.375 12.25 C-60.46878906 11.84072266 -59.56257813 11.43144531 -58.62890625 11.00976562 C-51.26465301 7.78365996 -43.97068386 5.70478645 -36.125 4 C-35.00609375 3.74476562 -33.8871875 3.48953125 -32.734375 3.2265625 C-21.70794212 0.7560174 -11.26935208 0.00955153 0 0 Z " fill="#1D4432" transform="translate(169.375,15.75)"/>
<path d="M0 0 C3.78970688 1.26323563 4.17254891 2.49600839 6.1875 5.875 C8.64638544 9.88168912 11.19846155 13.72472294 14 17.5 C17.31165934 21.9857351 20.32918972 26.59088152 23.28515625 31.31640625 C24.95645468 33.93185504 26.70444259 36.46862396 28.5 39 C30.89536404 42.38012481 33.17155757 45.80425411 35.375 49.3125 C38.63399182 54.48769191 42.09179931 59.5025586 45.59375 64.515625 C48.65602638 68.92144979 51.60841784 73.40067799 54.55004883 77.88769531 C56.31716629 80.56433182 58.09602611 83.11972086 60.10546875 85.625 C61.9952392 87.99403182 63.464645 90.38989649 65 93 C66.64162505 95.51677708 68.32185723 98.00746441 70 100.5 C78 112.38235294 78 112.38235294 78 115 C78.66 115 79.32 115 80 115 C81.48405986 117.09763248 82.847309 119.18776794 84.1875 121.375 C85.00100183 122.67288071 85.81611692 123.96975159 86.6328125 125.265625 C87.03532227 125.90564453 87.43783203 126.54566406 87.85253906 127.20507812 C89.88109078 130.37825095 92.07158427 133.43294518 94.25 136.50390625 C97.59336658 141.27268135 100.78334268 146.14529131 104 151 C104.99942189 152.50038525 105.9993743 154.00041732 107 155.5 C108.63786735 157.95458169 110.27245589 160.41120139 111.90234375 162.87109375 C115.60289233 168.44677635 119.36247076 173.9685949 123.21875 179.4375 C125.87608762 183.26033658 128.43464639 187.14756995 131.0078125 191.02734375 C133.47112405 194.70299098 136.00264566 198.32700281 138.5546875 201.94140625 C142 206.84864865 142 206.84864865 142 210 C142.66 210 143.32 210 144 210 C146.6623056 213.43297301 148.99610977 216.90462581 151.125 220.6875 C152.62316375 223.33425597 154.16053707 225.60070052 156 228 C156.59554687 229.03060547 156.59554687 229.03060547 157.203125 230.08203125 C158.69403628 232.50314152 160.24737947 234.77023348 161.91796875 237.06640625 C162.44970703 237.79923828 162.98144531 238.53207031 163.52929688 239.28710938 C164.64069778 240.81217658 165.75796268 242.3329865 166.88085938 243.84960938 C167.40873047 244.58115234 167.93660156 245.31269531 168.48046875 246.06640625 C168.96410889 246.72584229 169.44774902 247.38527832 169.94604492 248.06469727 C171 250 171 250 171 254 C114.57 254 58.14 254 0 254 C0 170.18 0 86.36 0 0 Z " fill="#C93729" transform="translate(351,103)"/>
<path d="M0 0 C18.15 0 36.3 0 55 0 C54.98839844 8.79914063 54.97679687 17.59828125 54.96484375 26.6640625 C54.95906419 33.04728925 54.9539416 39.43051397 54.94974613 45.81374168 C54.94426443 54.02443417 54.93734512 62.23511607 54.92456055 70.44580078 C54.79758972 110.48437333 54.79758972 110.48437333 55.56647682 150.51249123 C56.15419579 168.85820953 56.15258434 187.20115755 56.13037109 205.55493164 C56.12452283 210.4525421 56.12807009 215.35009955 56.13394356 220.24770832 C56.13753442 224.06418775 56.13642004 227.88065423 56.13381577 231.69713402 C56.13315005 233.50772292 56.13396248 235.31831301 56.13629532 237.12890053 C56.13881327 239.61762346 56.13500058 242.1062547 56.12939453 244.5949707 C56.13141876 245.33583923 56.13344299 246.07670776 56.13552856 246.84002686 C56.11429526 251.88570474 56.11429526 251.88570474 55 253 C53.31744765 253.0987517 51.63075972 253.12798904 49.9453125 253.12939453 C48.32858643 253.13412277 48.32858643 253.13412277 46.67919922 253.13894653 C45.50631348 253.1369223 44.33342773 253.13489807 43.125 253.1328125 C41.9302002 253.13376923 40.73540039 253.13472595 39.50439453 253.13571167 C36.9723302 253.13639371 34.44026412 253.13453778 31.90820312 253.13037109 C28.0168874 253.12502321 24.12568711 253.13031533 20.234375 253.13671875 C17.78124974 253.13605797 15.32812456 253.13477682 12.875 253.1328125 C11.70211426 253.13483673 10.52922852 253.13686096 9.32080078 253.13894653 C8.2429834 253.13579437 7.16516602 253.13264221 6.0546875 253.12939453 C5.10062012 253.12859894 4.14655273 253.12780334 3.16357422 253.12698364 C1 253 1 253 0 252 C-0.1038017 250.39786188 -0.13796575 248.79116705 -0.14476013 247.1856842 C-0.15165863 246.14384476 -0.15855713 245.10200531 -0.16566467 244.02859497 C-0.16958473 242.29946365 -0.16958473 242.29946365 -0.17358398 240.53540039 C-0.180271 239.3290242 -0.18695801 238.12264801 -0.19384766 236.87971497 C-0.20793669 234.25016468 -0.22025658 231.62067058 -0.22979546 228.99110603 C-0.24521113 224.83602311 -0.26915941 220.68101719 -0.29469299 216.52598572 C-0.36599557 204.70886085 -0.42572138 192.89169185 -0.47680664 181.07446289 C-0.50507797 174.55212069 -0.54044146 168.02985507 -0.58346039 161.5075931 C-0.61028928 157.37436695 -0.62815957 153.24122748 -0.63949764 149.10793126 C-0.65073886 145.93656751 -0.67486848 142.76529761 -0.69702148 139.59399414 C-0.6979052 137.86789917 -0.6979052 137.86789917 -0.69880676 136.10693359 C-0.70852509 135.06227432 -0.71824341 134.01761505 -0.72825623 132.94129944 C-0.73248816 132.0300232 -0.7367201 131.11874697 -0.74108028 130.1798563 C-0.79689742 127.79059044 -0.79689742 127.79059044 -3 126 C-1.515 125.505 -1.515 125.505 0 125 C0 83.75 0 42.5 0 0 Z " fill="#0E100D" transform="translate(141,194)"/>
<path d="M0 0 C79.53 0 159.06 0 241 0 C240.17681661 4.93910033 239.51528315 7.44959962 237.3125 11.6875 C236.77625 12.72390625 236.24 13.7603125 235.6875 14.828125 C223.62134642 37.50802479 210.23190608 56.32570836 185 65 C180.05836634 66.31736574 175.0472321 67.18800317 170 68 C169.12116653 68.17287537 168.24233307 68.34575073 167.33686829 68.52386475 C163.27668625 69.1032091 159.33058926 69.15542891 155.23510742 69.16113281 C154.37396332 69.16609772 153.51281921 69.17106262 152.62557983 69.17617798 C149.78553452 69.19074061 146.94554523 69.19759496 144.10546875 69.203125 C142.63960547 69.20736607 142.63960547 69.20736607 141.1441288 69.21169281 C135.96335202 69.22666861 130.78260292 69.23590577 125.60180664 69.24023438 C120.29447073 69.24568878 114.9873953 69.26965693 109.6801405 69.29820633 C105.56270151 69.31700143 101.44532285 69.32204739 97.32784462 69.32357025 C95.37416486 69.32656399 93.42048531 69.33447894 91.46684837 69.34775543 C76.24025696 69.44376995 60.63276206 69.06845506 46.625 62.375 C45.88024414 62.03235107 45.13548828 61.68970215 44.36816406 61.33666992 C37.70649586 58.13227746 32.42923506 54.02204243 27 49 C25.92226803 48.13877668 24.83988252 47.28329424 23.75 46.4375 C18.42727633 41.7196313 13.60789905 37.14621799 12 30 C11.34 30 10.68 30 10 30 C-1.83534137 7.34136546 -1.83534137 7.34136546 0 0 Z " fill="#131411" transform="translate(232,378)"/>
<path d="M0 0 C0.33 0 0.66 0 1 0 C1 81.51 1 163.02 1 247 C56.44 246.67 111.88 246.34 169 246 C169.33 246.99 169.66 247.98 170 249 C113.9 249 57.8 249 0 249 C0 166.83 0 84.66 0 0 Z " fill="#AB3125" transform="translate(352,108)"/>
<path d="M0 0 C0.598125 0.763125 1.19625 1.52625 1.8125 2.3125 C3.81125662 4.88000984 3.81125662 4.88000984 5.5625 6.5 C7.44451945 8.46384638 8.60019362 10.66165067 10 13 C10.75982615 14.15228233 11.52584245 15.30049848 12.296875 16.4453125 C12.69777344 17.04730469 13.09867187 17.64929688 13.51171875 18.26953125 C14.34567536 19.51915078 15.18699252 20.76388573 16.03515625 22.00390625 C17.10211945 23.61999058 18.05989228 25.30697416 19 27 C18 30 18 30 16 31 C11.6836209 27.25156552 10.46570505 24.44404732 9 19 C8.01 18.67 7.02 18.34 6 18 C5.33333333 16 4.66666667 14 4 12 C2.00064306 9.66468542 2.00064306 9.66468542 0 8 C0.66 7.67 1.32 7.34 2 7 C1.34 6.01 0.68 5.02 0 4 C-0.99 4.495 -0.99 4.495 -2 5 C-1.34 3.35 -0.68 1.7 0 0 Z " fill="#C6453C" transform="translate(406,183)"/>
<path d="M0 0 C0.33 0 0.66 0 1 0 C1.02922653 4.49998618 1.04687482 8.99994765 1.0625 13.5 C1.07087891 14.7684375 1.07925781 16.036875 1.08789062 17.34375 C1.10434137 23.66083499 1.00091014 29.75810372 0 36 C-0.33 36 -0.66 36 -1 36 C-1.33 33.36 -1.66 30.72 -2 28 C-2.33 28 -2.66 28 -3 28 C-3.05394705 25.39555652 -3.09364469 22.79223002 -3.125 20.1875 C-3.14175781 19.44951172 -3.15851563 18.71152344 -3.17578125 17.95117188 C-3.21074628 14.08753574 -3.19397555 12.29096332 -1 9 C-0.54605448 6.72087062 -0.54605448 6.72087062 -0.375 4.3125 C-0.30023438 3.50425781 -0.22546875 2.69601563 -0.1484375 1.86328125 C-0.09945313 1.24839844 -0.05046875 0.63351563 0 0 Z " fill="#7B8E80" transform="translate(325,157)"/>
<path d="M0 0 C2.97 0.33 5.94 0.66 9 1 C8.34 3.31 7.68 5.62 7 8 C6.34 8 5.68 8 5 8 C4.67 9.65 4.34 11.3 4 13 C1.47519307 10.47519307 1.44261367 8.86176966 0.875 5.375 C0.70742187 4.37210937 0.53984375 3.36921875 0.3671875 2.3359375 C0.24601563 1.56507813 0.12484375 0.79421875 0 0 Z " fill="#282927" transform="translate(231,379)"/>
<path d="M0 0 C0.33 0.99 0.66 1.98 1 3 C-0.65234375 5.48046875 -0.65234375 5.48046875 -2.9375 8.1875 C-3.68902344 9.08855469 -4.44054687 9.98960937 -5.21484375 10.91796875 C-5.80394531 11.60503906 -6.39304687 12.29210937 -7 13 C-9.046875 9.2578125 -9.046875 9.2578125 -8.625 6.9375 C-8.41875 6.298125 -8.2125 5.65875 -8 5 C-8 4.01 -8 3.02 -8 2 C-3.25 1 -3.25 1 -1 1 C-0.67 0.67 -0.34 0.34 0 0 Z " fill="#335041" transform="translate(297,257)"/>
<path d="M0 0 C1.8125 0.0625 1.8125 0.0625 4 1 C5.625 4.375 5.625 4.375 7 8 C7.99 9.485 7.99 9.485 9 11 C8.01 11.495 8.01 11.495 7 12 C6.34 11.67 5.68 11.34 5 11 C4.67 11.66 4.34 12.32 4 13 C3.32694982 11.39850114 2.66177773 9.79368971 2 8.1875 C1.62875 7.29417969 1.2575 6.40085938 0.875 5.48046875 C0 3 0 3 0 0 Z " fill="#445D4F" transform="translate(22,219)"/>
<path d="M0 0 C1.67056149 0.31323028 3.33605325 0.65334443 5 1 C5.67417969 1.09925781 6.34835938 1.19851563 7.04296875 1.30078125 C9.18979135 1.6879132 11.0195495 2.07875673 13 3 C14.5 6.125 14.5 6.125 15 9 C10.45048283 7.7303673 7.59308978 6.02575982 4 3 C2.68861096 2.29114106 1.36222983 1.60543548 0 1 C0 0.67 0 0.34 0 0 Z " fill="#4A5E52" transform="translate(80,297)"/>
<path d="M0 0 C3.66161578 1.22053859 4.16270474 2.36782304 6.1875 5.5625 C6.71730469 6.38878906 7.24710937 7.21507813 7.79296875 8.06640625 C8.19128906 8.70449219 8.58960938 9.34257813 9 10 C8.01 10.66 7.02 11.32 6 12 C3.47769373 10.73884686 3.11109845 9.62466575 1.875 7.125 C1.34519531 6.07699219 1.34519531 6.07699219 0.8046875 5.0078125 C0 3 0 3 0 0 Z " fill="#BB4340" transform="translate(352,105)"/>
<path d="M0 0 C0.99 0.495 0.99 0.495 2 1 C2 1.66 2 2.32 2 3 C2.66 3 3.32 3 4 3 C9 8.47619048 9 8.47619048 9 11 C7.68428397 10.7452486 6.37239624 10.47065859 5.0625 10.1875 C4.33160156 10.03667969 3.60070312 9.88585937 2.84765625 9.73046875 C2.23792969 9.48941406 1.62820313 9.24835938 1 9 C-0.14466615 5.56600155 0 3.69214898 0 0 Z " fill="#465A4C" transform="translate(281,62)"/>
<path d="M0 0 C4 5 4 5 8 10 C7.67 10.66 7.34 11.32 7 12 C6.401875 11.690625 5.80375 11.38125 5.1875 11.0625 C2.91043228 9.89790296 2.91043228 9.89790296 0 9 C0 8.01 0 7.02 0 6 C-0.66 6 -1.32 6 -2 6 C-2 5.34 -2 4.68 -2 4 C-1.34 4 -0.68 4 0 4 C0 2.68 0 1.36 0 0 Z " fill="#C9594D" transform="translate(456,257)"/>
<path d="M0 0 C4 3 4 3 4.75 5.1875 C4.8325 5.785625 4.915 6.38375 5 7 C4.01 7 3.02 7 2 7 C2 7.99 2 8.98 2 10 C2.66 10 3.32 10 4 10 C3.67 10.66 3.34 11.32 3 12 C1.68 12 0.36 12 -1 12 C-0.67 8.04 -0.34 4.08 0 0 Z " fill="#BE3326" transform="translate(505,332)"/>
<path d="M0 0 C0.66 0.33 1.32 0.66 2 1 C2 2.32 2 3.64 2 5 C-0.64 5.99 -3.28 6.98 -6 8 C-5.67 6.02 -5.34 4.04 -5 2 C-4.01 1.67 -3.02 1.34 -2 1 C-1.34 1.33 -0.68 1.66 0 2 C0 1.34 0 0.68 0 0 Z " fill="#C03224" transform="translate(454,256)"/>
<path d="M0 0 C0.598125 0.763125 1.19625 1.52625 1.8125 2.3125 C3.46959332 4.3483575 5.10297674 6.1978279 7 8 C6.67 8.66 6.34 9.32 6 10 C3.9375 10.625 3.9375 10.625 2 11 C1.34 9.68 0.68 8.36 0 7 C0.66 7 1.32 7 2 7 C1.34 6.01 0.68 5.02 0 4 C-0.99 4.495 -0.99 4.495 -2 5 C-1.34 3.35 -0.68 1.7 0 0 Z " fill="#CD594F" transform="translate(406,183)"/>
<path d="M0 0 C0.66 0.33 1.32 0.66 2 1 C1.67 1.66 1.34 2.32 1 3 C1.66 3 2.32 3 3 3 C3.33 2.34 3.66 1.68 4 1 C4 1.99 4 2.98 4 4 C4.66 4.33 5.32 4.66 6 5 C3.44564711 6.60829626 2.45488483 7.09985277 -0.5625 6.4375 C-1.366875 6.293125 -2.17125 6.14875 -3 6 C-4.8354799 7.33378575 -4.8354799 7.33378575 -6 9 C-6.66 8.67 -7.32 8.34 -8 8 C-7.50628906 7.59007812 -7.01257812 7.18015625 -6.50390625 6.7578125 C-5.86324219 6.21898437 -5.22257812 5.68015625 -4.5625 5.125 C-3.92441406 4.59132813 -3.28632812 4.05765625 -2.62890625 3.5078125 C-0.89194996 2.0777243 -0.89194996 2.0777243 0 0 Z " fill="#4E685B" transform="translate(66,54)"/>
<path d="M0 0 C0.33 0.99 0.66 1.98 1 3 C3.01508358 3.73323796 3.01508358 3.73323796 5 4 C5.33 3.01 5.66 2.02 6 1 C6.66 1 7.32 1 8 1 C8 1.66 8 2.32 8 3 C8.66 3.33 9.32 3.66 10 4 C4.41615387 5.86128204 -1.31147144 5.13770571 -7 4 C-2.25 0 -2.25 0 0 0 Z " fill="#333230" transform="translate(299,441)"/>
<path d="M0 0 C0.61875 0.33 1.2375 0.66 1.875 1 C3.91018344 2.14193235 3.91018344 2.14193235 6 2 C6.33 1.34 6.66 0.68 7 0 C7.66 1.65 8.32 3.3 9 5 C6.03 5.66 3.06 6.32 0 7 C0 4.69 0 2.38 0 0 Z " fill="#CB4C40" transform="translate(488,313)"/>
<path d="M0 0 C3.33557632 2.9905167 5.15083921 5.93184627 7 10 C6.01 10.33 5.02 10.66 4 11 C4 10.34 4 9.68 4 9 C2.68 9 1.36 9 0 9 C0.185625 8.443125 0.37125 7.88625 0.5625 7.3125 C1.07551165 4.600867 0.6640724 2.65628961 0 0 Z " fill="#C65449" transform="translate(482,296)"/>
<path d="M0 0 C3.1808342 2.12055614 4.31525278 3.63050557 6 7 C5.67 7.66 5.34 8.32 5 9 C4.236875 8.525625 3.47375 8.05125 2.6875 7.5625 C0.03589452 5.89893903 0.03589452 5.89893903 -3 5 C-3 4.01 -3 3.02 -3 2 C-2.01 2 -1.02 2 0 2 C0 1.34 0 0.68 0 0 Z " fill="#CC5D56" transform="translate(381,146)"/>
<path d="M0 0 C0.33 0 0.66 0 1 0 C1.34615998 5.65394631 0.43425238 9.03006806 -2 14 C-2.66 14 -3.32 14 -4 14 C-3.46148032 8.72250715 -2.22656164 4.74354436 0 0 Z " fill="#4F6255" transform="translate(318,212)"/>
<path d="M0 0 C2.40072955 2.88087546 4.47291037 5.56404834 6 9 C5.01 8.67 4.02 8.34 3 8 C2.01 8.33 1.02 8.66 0 9 C0 8.01 0 7.02 0 6 C-0.66 5.67 -1.32 5.34 -2 5 C-1.34 3.35 -0.68 1.7 0 0 Z " fill="#D05B53" transform="translate(514,343)"/>
<path d="M0 0 C0.99 0.99 1.98 1.98 3 3 C2.1875 4.9375 2.1875 4.9375 1 7 C0.01 7.33 -0.98 7.66 -2 8 C-2 7.34 -2 6.68 -2 6 C-2.99 6 -3.98 6 -5 6 C-5 5.34 -5 4.68 -5 4 C-3.68 4 -2.36 4 -1 4 C-0.67 2.68 -0.34 1.36 0 0 Z M-4 8 C-2 9 -2 9 -2 9 Z " fill="#C64940" transform="translate(477,288)"/>
<path d="M0 0 C0.598125 0.763125 1.19625 1.52625 1.8125 2.3125 C3.46959332 4.3483575 5.10297674 6.1978279 7 8 C6.67 8.66 6.34 9.32 6 10 C5.67 10.99 5.34 11.98 5 13 C4.34 13 3.68 13 3 13 C2.17361624 10.10765685 2 8.11257569 2 5 C1.34 5 0.68 5 0 5 C0 3.35 0 1.7 0 0 Z " fill="#C75852" transform="translate(464,269)"/>
<path d="M0 0 C0.33 0.99 0.66 1.98 1 3 C1.66 3 2.32 3 3 3 C3.33 2.01 3.66 1.02 4 0 C5.32 0.33 6.64 0.66 8 1 C4.8745041 3.64465038 1.91211733 4.84414715 -2 6 C-2 4.35 -2 2.7 -2 1 C-1.34 0.67 -0.68 0.34 0 0 Z " fill="#52514E" transform="translate(427,433)"/>
<path d="M0 0 C3 1 3 1 4 2.9375 C4.33 3.618125 4.66 4.29875 5 5 C5.99 5.66 6.98 6.32 8 7 C5.36 7 2.72 7 0 7 C0 4.69 0 2.38 0 0 Z M4 2 C6 3 6 3 6 3 Z " fill="#163726" transform="translate(198,313)"/>
<path d="M0 0 C-2.36292656 2.52588702 -3.66462511 3.88820837 -7 5 C-7.33 4.01 -7.66 3.02 -8 2 C-8.66 1.67 -9.32 1.34 -10 1 C-6.1496895 -1.56687367 -4.41430237 -0.83288724 0 0 Z " fill="#3F584B" transform="translate(268,291)"/>
<path d="M0 0 C0.598125 0.763125 1.19625 1.52625 1.8125 2.3125 C3.46959332 4.3483575 5.10297674 6.1978279 7 8 C6.67 8.66 6.34 9.32 6 10 C3.9375 10.625 3.9375 10.625 2 11 C1.34 9.68 0.68 8.36 0 7 C0.66 7 1.32 7 2 7 C2 6.01 2 5.02 2 4 C1.34 4 0.68 4 0 4 C0 2.68 0 1.36 0 0 Z " fill="#CB5E53" transform="translate(435,226)"/>
<path d="M0 0 C2.25245881 2.68841859 3.88213958 4.64641875 5 8 C4.01 8.495 4.01 8.495 3 9 C0.96855359 8.06553465 -1.03533587 7.06775224 -3 6 C-2.67 5.01 -2.34 4.02 -2 3 C-1.34 3 -0.68 3 0 3 C0 2.01 0 1.02 0 0 Z " fill="#CA4D46" transform="translate(376,138)"/>
<path d="M0 0 C1.32 1.32 2.64 2.64 4 4 C3.01 5.32 2.02 6.64 1 8 C-0.65 7.01 -2.3 6.02 -4 5 C-3.67 4.01 -3.34 3.02 -3 2 C-2.01 2 -1.02 2 0 2 C0 1.34 0 0.68 0 0 Z " fill="#365746" transform="translate(292,75)"/>
<path d="M0 0 C0.66 0.33 1.32 0.66 2 1 C2 2.32 2 3.64 2 5 C-1.63 5.33 -5.26 5.66 -9 6 C-7.73295613 3.46591226 -6.56876843 3.06790028 -4.0625 1.8125 C-3.35222656 1.44769531 -2.64195313 1.08289062 -1.91015625 0.70703125 C-1.27980469 0.47371094 -0.64945313 0.24039063 0 0 Z " fill="#53685B" transform="translate(99,32)"/>
<path d="M0 0 C1.32 0.33 2.64 0.66 4 1 C4 1.66 4 2.32 4 3 C4.66 3.33 5.32 3.66 6 4 C4.35 5.32 2.7 6.64 1 8 C0 6 -1 4 -2 2 C-1.34 2 -0.68 2 0 2 C0 1.34 0 0.68 0 0 Z " fill="#2C2D2B" transform="translate(443,418)"/>
<path d="M0 0 C0.99 0 1.98 0 3 0 C1.43358249 4.30764815 -0.68336156 8.06171464 -3 12 C-3.33 12 -3.66 12 -4 12 C-4 10.35 -4 8.7 -4 7 C-3.01 6.67 -2.02 6.34 -1 6 C-1.309375 5.071875 -1.309375 5.071875 -1.625 4.125 C-1.810625 3.073125 -1.810625 3.073125 -2 2 C-1.34 1.34 -0.68 0.68 0 0 Z " fill="#54534F" transform="translate(460,400)"/>
<path d="M0 0 C0.33 0.33 0.66 0.66 1 1 C2.66617115 1.04063832 4.33388095 1.042721 6 1 C3.08014685 3.48728231 0.85780093 4.71066493 -3 5 C-5.3125 4.0625 -5.3125 4.0625 -7 3 C-2.25 0 -2.25 0 0 0 Z " fill="#56695E" transform="translate(233,308)"/>
<path d="M0 0 C1.98 1.65 3.96 3.3 6 5 C5.67 5.66 5.34 6.32 5 7 C3.33333333 7 1.66666667 7 0 7 C-0.93423645 3.98968256 -1.04449911 3.13349732 0 0 Z " fill="#C44D45" transform="translate(411,192)"/>
<path d="M0 0 C3.33557632 2.9905167 5.15083921 5.93184627 7 10 C4.03 9.505 4.03 9.505 1 9 C1.33 8.01 1.66 7.02 2 6 C1.34 5.67 0.68 5.34 0 5 C0 3.35 0 1.7 0 0 Z " fill="#C65852" transform="translate(387,155)"/>
<path d="M0 0 C2.31 0.33 4.62 0.66 7 1 C6.34 1.66 5.68 2.32 5 3 C4.3574765 5.06874034 4.3574765 5.06874034 4 7 C3.01 7 2.02 7 1 7 C0.67 4.69 0.34 2.38 0 0 Z " fill="#464643" transform="translate(231,379)"/>
<path d="M0 0 C0.66 0.99 1.32 1.98 2 3 C1.67 3.66 1.34 4.32 1 5 C0.34 5 -0.32 5 -1 5 C-1.33 5.66 -1.66 6.32 -2 7 C-2.99 6.67 -3.98 6.34 -5 6 C-5.33 7.32 -5.66 8.64 -6 10 C-5.67 7.03 -5.34 4.06 -5 1 C-4.34 1.99 -3.68 2.98 -3 4 C-2.01 2.68 -1.02 1.36 0 0 Z " fill="#4B685A" transform="translate(22,137)"/>
<path d="M0 0 C0 3.10551666 -0.5393715 4.35261084 -2 7 C-2.66 7 -3.32 7 -4 7 C-4.33 7.66 -4.66 8.32 -5 9 C-5.125 3.25 -5.125 3.25 -4 1 C-1.9375 0.375 -1.9375 0.375 0 0 Z " fill="#586B5F" transform="translate(304,248)"/>
<path d="M0 0 C1.33332095 2.6666419 0.67102033 4.16680303 0 7 C-0.66 7 -1.32 7 -2 7 C-2 7.66 -2 8.32 -2 9 C-2.66 9 -3.32 9 -4 9 C-4.33 9.66 -4.66 10.32 -5 11 C-4.39102647 7.44765442 -3.54266151 4.2668126 -2 1 C-1.34 0.67 -0.68 0.34 0 0 Z " fill="#54695C" transform="translate(27,111)"/>
<path d="M0 0 C2.52588702 2.36292656 3.88820837 3.66462511 5 7 C2.69 6.67 0.38 6.34 -2 6 C-2 5.01 -2 4.02 -2 3 C-1.34 2.67 -0.68 2.34 0 2 C0 1.34 0 0.68 0 0 Z " fill="#CD5B4F" transform="translate(509,336)"/>
<path d="M0 0 C1.32 1.32 2.64 2.64 4 4 C1.64561267 5.42944945 0.51967567 6.08661261 -2.25 5.625 C-2.8275 5.41875 -3.405 5.2125 -4 5 C-3.34 4.01 -2.68 3.02 -2 2 C-1.34 2 -0.68 2 0 2 C0 1.34 0 0.68 0 0 Z M-5 6 C-4.01 6.495 -4.01 6.495 -3 7 C-3.99 7.495 -3.99 7.495 -5 8 C-5 7.34 -5 6.68 -5 6 Z " fill="#446252" transform="translate(277,58)"/>
<path d="M0 0 C0.99 0.33 1.98 0.66 3 1 C1.7508258 4.45925163 0.32472205 7.14693203 -2 10 C-3.39195915 5.82412255 -1.82323219 3.86525224 0 0 Z " fill="#56655B" transform="translate(308,236)"/>
<path d="M0 0 C1.32 0 2.64 0 4 0 C3.39009109 3.55780196 2.4216319 6.6828589 1 10 C0.67 10 0.34 10 0 10 C0 6.7 0 3.4 0 0 Z " fill="#43423E" transform="translate(469,379)"/>
<path d="M0 0 C2.6875 1.4375 2.6875 1.4375 5 3 C4.67 3.66 4.34 4.32 4 5 C1.36 4.67 -1.28 4.34 -4 4 C-3.67 3.01 -3.34 2.02 -3 1 C-2.01 0.67 -1.02 0.34 0 0 Z " fill="#C5473B" transform="translate(517,350)"/>
<path d="M0 0 C2.5 2.3125 2.5 2.3125 5 5 C5 5.99 5 6.98 5 8 C4.401875 7.835 3.80375 7.67 3.1875 7.5 C0.88655664 6.8885876 0.88655664 6.8885876 -2 7 C-1.34 6.67 -0.68 6.34 0 6 C0 4.02 0 2.04 0 0 Z " fill="#CE5C53" transform="translate(471,280)"/>
<path d="M0 0 C0.33 0 0.66 0 1 0 C1.66 4.62 2.32 9.24 3 14 C2.01 14 1.02 14 0 14 C-1.39151652 9.20699867 -0.68662689 4.84864218 0 0 Z " fill="#1D1E1A" transform="translate(194,344)"/>
<path d="M0 0 C-0.39803561 2.88575819 -0.79009069 3.82189513 -3.0625 5.75 C-3.701875 6.1625 -4.34125 6.575 -5 7 C-5.33 6.34 -5.66 5.68 -6 5 C-4.69518339 1.68777323 -3.79104597 0 0 0 Z " fill="#4B5F51" transform="translate(288,270)"/>
<path d="M0 0 C3 1 3 1 4.1875 2.875 C5 5 5 5 5 8 C5.66 8.33 6.32 8.66 7 9 C6.34 9.66 5.68 10.32 5 11 C4.16151196 9.54462432 3.32936066 8.08559627 2.5 6.625 C1.80390625 5.40683594 1.80390625 5.40683594 1.09375 4.1640625 C0 2 0 2 0 0 Z " fill="#69796E" transform="translate(29,237)"/>
<path d="M0 0 C0.66 1.32 1.32 2.64 2 4 C0.69593116 6.01920337 -0.63823419 8.01924973 -2 10 C-2.33 10 -2.66 10 -3 10 C-3.36629408 5.72656908 -2.40814077 3.51187196 0 0 Z " fill="#5B6C5F" transform="translate(32,97)"/>
<path d="M0 0 C0.99 0.33 1.98 0.66 3 1 C4.1875 3.5625 4.1875 3.5625 5 6 C4.34 6 3.68 6 3 6 C2.67 6.66 2.34 7.32 2 8 C0.23537317 4.91190305 0 3.76687864 0 0 Z " fill="#C8564C" transform="translate(497,319)"/>
<path d="M0 0 C1.65 1.65 3.3 3.3 5 5 C4.67 5.66 4.34 6.32 4 7 C3.01 7.33 2.02 7.66 1 8 C0 2.25 0 2.25 0 0 Z " fill="#D35D58" transform="translate(451,250)"/>
<path d="M0 0 C0.33 0 0.66 0 1 0 C1.66 3.3 2.32 6.6 3 10 C2.01 10 1.02 10 0 10 C-0.74926071 6.33694766 -1.2380014 3.57644848 0 0 Z " fill="#4E6358" transform="translate(318,123)"/>
<path d="M0 0 C1.32 1.65 2.64 3.3 4 5 C3.01 5.66 2.02 6.32 1 7 C-1 6 -1 6 -2 4 C-1.0625 1.875 -1.0625 1.875 0 0 Z " fill="#CC5F56" transform="translate(357,110)"/>
<path d="M0 0 C0 0.99 0 1.98 0 3 C-2.97 2.67 -5.94 2.34 -9 2 C-5.5647952 -0.29013653 -4.014669 -0.17842973 0 0 Z " fill="#5A6A61" transform="translate(133,21)"/>
<path d="M0 0 C1.32 0.66 2.64 1.32 4 2 C3.67 3.65 3.34 5.3 3 7 C1.68 6.01 0.36 5.02 -1 4 C-0.67 2.68 -0.34 1.36 0 0 Z " fill="#395346" transform="translate(77,290)"/>
<path d="M0 0 C0.99 0.33 1.98 0.66 3 1 C0.36 2.98 -2.28 4.96 -5 7 C-5 6.01 -5 5.02 -5 4 C-4.0409375 3.8453125 -4.0409375 3.8453125 -3.0625 3.6875 C-2.381875 3.460625 -1.70125 3.23375 -1 3 C-0.67 2.01 -0.34 1.02 0 0 Z " fill="#66766B" transform="translate(273,284)"/>
<path d="M0 0 C2 1 2 1 2.75 2.9375 C2.8325 3.618125 2.915 4.29875 3 5 C2.34 5.66 1.68 6.32 1 7 C-0.0625 5.1875 -0.0625 5.1875 -1 3 C-0.67 2.01 -0.34 1.02 0 0 Z M-3 5 C-2.34 5 -1.68 5 -1 5 C-1.33 5.66 -1.66 6.32 -2 7 C-2.33 6.34 -2.66 5.68 -3 5 Z " fill="#BE3025" transform="translate(469,278)"/>
<path d="M0 0 C0.99 0.66 1.98 1.32 3 2 C1.25 5.875 1.25 5.875 -1 7 C-1.625 5.1875 -1.625 5.1875 -2 3 C-1.34 2.01 -0.68 1.02 0 0 Z " fill="#405549" transform="translate(290,263)"/>
<path d="M0 0 C1.32 0 2.64 0 4 0 C4.99 2.31 5.98 4.62 7 7 C6.01 7.495 6.01 7.495 5 8 C2.525 4.04 2.525 4.04 0 0 Z " fill="#526055" transform="translate(38,254)"/>
<path d="M0 0 C-0.99 3.3 -1.98 6.6 -3 10 C-3.33 10 -3.66 10 -4 10 C-4 7.03 -4 4.06 -4 1 C-2 0 -2 0 0 0 Z " fill="#2E4A3C" transform="translate(21,193)"/>
<path d="M0 0 C1.32 1.32 2.64 2.64 4 4 C3.67 4.66 3.34 5.32 3 6 C1.35 5.67 -0.3 5.34 -2 5 C-1.34 3.35 -0.68 1.7 0 0 Z " fill="#CF5953" transform="translate(394,165)"/>
<path d="M0 0 C1 3 1 3 0.3125 5.125 C-1 7 -1 7 -3.125 7.75 C-4.053125 7.87375 -4.053125 7.87375 -5 8 C-4.34 6.02 -3.68 4.04 -3 2 C-2.34 2 -1.68 2 -1 2 C-0.67 1.34 -0.34 0.68 0 0 Z " fill="#395043" transform="translate(31,104)"/>
<path d="M0 0 C0.66 0.33 1.32 0.66 2 1 C0.875 3.4375 0.875 3.4375 -1 6 C-4.1875 6.8125 -4.1875 6.8125 -7 7 C-4.66666667 4.66666667 -2.33333333 2.33333333 0 0 Z " fill="#67776C" transform="translate(75,47)"/>
<path d="M0 0 C2.97 0.33 5.94 0.66 9 1 C8.01 1.33 7.02 1.66 6 2 C5.67 2.66 5.34 3.32 5 4 C2.525 3.01 2.525 3.01 0 2 C0 1.34 0 0.68 0 0 Z " fill="#44594D" transform="translate(199,19)"/>
<path d="M0 0 C0.66 1.32 1.32 2.64 2 4 C2.66 4 3.32 4 4 4 C3.67 4.66 3.34 5.32 3 6 C-0.0625 6.625 -0.0625 6.625 -3 7 C-2.690625 6.401875 -2.38125 5.80375 -2.0625 5.1875 C-0.89790296 2.91043228 -0.89790296 2.91043228 0 0 Z " fill="#C95749" transform="translate(427,214)"/>
<path d="M0 0 C0.66 0 1.32 0 2 0 C4.125 4.625 4.125 4.625 3 8 C2.34 7.67 1.68 7.34 1 7 C0.59270772 4.67843403 0.25561323 2.3431213 0 0 Z " fill="#66756A" transform="translate(314,115)"/>
<path d="M0 0 C0.66 0.33 1.32 0.66 2 1 C1.67 1.99 1.34 2.98 1 4 C-0.32 4 -1.64 4 -3 4 C-3 4.66 -3 5.32 -3 6 C-4.32 5.67 -5.64 5.34 -7 5 C-4.69 3.35 -2.38 1.7 0 0 Z " fill="#546556" transform="translate(88,38)"/>
<path d="M0 0 C3.125 0.375 3.125 0.375 6 1 C6.33 1.99 6.66 2.98 7 4 C2.545 3.01 2.545 3.01 -2 2 C-1.34 1.34 -0.68 0.68 0 0 Z " fill="#69786E" transform="translate(124,316)"/>
<path d="M0 0 C-1.32 0.99 -2.64 1.98 -4 3 C-5.32 2.34 -6.64 1.68 -8 1 C-4.93251126 -0.86240388 -3.40254489 -1.2151946 0 0 Z " fill="#32473A" transform="translate(244,306)"/>
<path d="M0 0 C0.99 0.33 1.98 0.66 3 1 C1.25 5.875 1.25 5.875 -1 7 C-0.67 4.69 -0.34 2.38 0 0 Z " fill="#1B3727" transform="translate(19,135)"/>
<path d="M0 0 C0.66 0 1.32 0 2 0 C2.33 1.32 2.66 2.64 3 4 C0.525 5.485 0.525 5.485 -2 7 C-2 3 -2 3 0 0 Z " fill="#475F52" transform="translate(79,44)"/>
</svg>
